<?xml version="1.0" encoding="UTF-8"?>
<svg xmlns="http://www.w3.org/2000/svg" version="1.1" viewBox="0 0 140 60">
  <defs>
    <style>
      .cls-1 {
        fill: none;
        stroke: #000;
        stroke-width: 2px;
      }

      .cls-2 {
        fill: #06a9bb;
      }

      .cls-3 {
        fill: #fdfde1;
        fill-rule: evenodd;
      }
    </style>
  </defs>
  <!-- Generator: Adobe Illustrator 28.7.1, SVG Export Plug-In . SVG Version: 1.2.0 Build 142)  -->
  <g>
    <g id="Layer_1">
      <path class="cls-2" d="M30,1h80c16,0,29,13,29,29h0c0,16-13,29-29,29H30C14,59,1,46,1,30h0C1,14,14,1,30,1Z"/>
      <path d="M43,36v-11.6h4.6c.9,0,1.6.2,2.3.5.6.3,1.1.8,1.4,1.4.3.6.5,1.3.5,2s-.2,1.5-.5,2c-.3.6-.8,1.1-1.4,1.4-.6.3-1.4.5-2.3.5h-2.9v-2h2.5c.5,0,.9,0,1.2-.2.3-.2.5-.4.7-.7.2-.3.2-.6.2-1s0-.7-.2-1c-.2-.3-.4-.5-.7-.7-.3-.2-.7-.2-1.2-.2h-1.7v9.6h-2.5ZM55.7,24.4v11.6h-2.4v-11.6h2.4ZM60.2,36.2c-.6,0-1.1,0-1.5-.3-.4-.2-.8-.5-1-.9-.2-.4-.4-.9-.4-1.4s0-.9.3-1.2c.2-.3.4-.6.7-.8.3-.2.7-.4,1-.5.4-.1.8-.2,1.2-.2.5,0,.9-.1,1.2-.1.3,0,.5-.1.7-.2.1,0,.2-.2.2-.4h0c0-.4-.1-.7-.3-.9-.2-.2-.5-.3-1-.3s-.8,0-1,.3c-.3.2-.4.4-.5.7l-2.2-.2c.1-.5.3-1,.7-1.4.3-.4.8-.7,1.3-.9.5-.2,1.1-.3,1.8-.3s.9,0,1.4.2c.4.1.8.3,1.2.5.3.2.6.5.8.9.2.4.3.8.3,1.3v5.9h-2.3v-1.2h0c-.1.3-.3.5-.6.7-.2.2-.5.4-.8.5-.3.1-.7.2-1.1.2ZM60.9,34.5c.4,0,.7,0,.9-.2.3-.1.5-.3.6-.6.2-.2.2-.5.2-.8v-.9c0,0-.2,0-.3.1-.1,0-.3,0-.4.1-.2,0-.3,0-.5,0-.2,0-.3,0-.4,0-.3,0-.5.1-.7.2-.2,0-.4.2-.5.4-.1.2-.2.3-.2.6,0,.3.1.6.4.8.2.2.5.3.9.3ZM68.1,39.3c-.3,0-.6,0-.9,0-.3,0-.5-.1-.7-.2l.5-1.8c.3,0,.5.1.8.1.2,0,.4,0,.6-.2.2-.1.3-.3.4-.6v-.4c.1,0-3-9-3-9h2.5l1.8,6.4h0l1.8-6.4h2.6l-3.4,9.7c-.2.5-.4.9-.7,1.2-.3.4-.6.6-1.1.8-.4.2-.9.3-1.5.3Z"/>
      <path class="cls-1" d="M30,1h80c16,0,29,13,29,29h0c0,16-13,29-29,29H30C14,59,1,46,1,30h0C1,14,14,1,30,1Z"/>
      <circle cx="106" cy="30" r="15"/>
      <path class="cls-3" d="M110,50c11,0,20-9,20-20s-9-20-20-20-20,9-20,20,9,20,20,20ZM108.9,22.9c-.8-.5-1.8-.6-2.6-.1-.8.4-1.3,1.3-1.3,2.2v10c0,.9.5,1.8,1.3,2.2.8.4,1.8.4,2.6-.1l7.5-5c.7-.5,1.1-1.2,1.1-2.1s-.4-1.6-1.1-2.1l-7.5-5Z"/>
    </g>
  </g>
</svg>